<svg width="160" height="32" viewBox="0 0 160 32" fill="none" xmlns="http://www.w3.org/2000/svg">
<path fill-rule="evenodd" clip-rule="evenodd" d="M0.0973816 31.8933V10.5554C0.0973816 -3.25797 25.5791 -4.31652 25.5791 13.0829C25.5791 22.5171 14.2933 22.2829 14.2933 22.2829V13.9942L9.00289 22.5472L14.4035 31.8933H0.0973816Z" fill="url(#paint0_linear_118_1660)"/>
<path fill-rule="evenodd" clip-rule="evenodd" d="M0.0973816 31.8933V10.5554C0.0973816 -3.25797 25.5791 -4.31652 25.5791 13.0829C25.5791 22.5171 14.2933 22.2829 14.2933 22.2829V13.9942L9.00289 22.5472L14.4035 31.8933H0.0973816Z" fill="url(#paint1_radial_118_1660)"/>
<path d="M50.713 15.9872C50.713 20.4974 47.5467 23.3055 42.5067 23.3055L39.287 21.1432V28.4962H34.0626V8.64H42.5067C47.5467 8.64 50.713 11.4481 50.713 15.9872ZM45.4354 15.9872C45.4354 14.1438 44.3536 13.0655 42.1901 13.0655H39.287V21.1444L42.1901 18.8812C44.3536 18.8812 45.4354 17.8029 45.4354 15.9872Z" fill="black"/>
<path d="M62.72 12.9322V17.7832C62.2713 17.6614 61.9548 17.6325 61.5849 17.6325C59.5525 17.6325 58.1542 18.7385 58.1542 21.433V28.4962H53.1409V13.1223H57.9165V14.9658C58.9461 13.5757 60.6075 12.8672 62.7188 12.9322H62.72Z" fill="black"/>
<path d="M78.0765 19.9594V28.4974H73.4052V26.5113C72.6933 27.9861 71.2684 28.7525 69.1838 28.7525C65.753 28.7525 63.8539 26.6817 63.8539 24.0151C63.8539 21.178 65.7797 19.4203 70.2133 19.4203H73.0632C72.9843 17.8597 72.0081 16.9809 70.029 16.9809C68.6574 16.9809 67.1258 17.491 66.3977 18.8499L64.7084 15.1907C66.0974 13.4922 68.5252 12.8684 70.7675 12.8684C75.4122 12.8684 78.0765 15.0806 78.0765 19.9594ZM73.0632 23.5617V22.2284H70.8997C69.2904 22.2284 68.7096 22.8522 68.7096 23.789C68.7096 24.7258 69.3959 25.3496 70.5832 25.3496C71.6916 25.3496 72.6678 24.7826 73.0632 23.5629V23.5617Z" fill="black"/>
<path d="M91.2255 27.7635C90.2412 28.4696 88.9473 28.7525 87.629 28.7525C83.9606 28.7525 81.8238 26.8232 81.8238 22.8812V17.7183H79.7391V13.6904H81.8238V9.69044H86.8371V13.6904H90.109V17.7183H86.8371V22.8243C86.8371 23.9594 87.4435 24.5832 88.3409 24.5832C88.8951 24.5832 89.4493 24.4128 89.9849 23.9907L91.2255 27.7635Z" fill="black"/>
<path d="M93.0377 13.1223H98.051V28.4962H93.0377V13.1223Z" fill="black"/>
<path d="M100.399 20.7814C100.399 16.1577 103.803 12.8672 108.605 12.8672C111.85 12.8672 114.332 14.4278 114.963 17.6151L111.084 19.7426C110.742 17.7751 109.739 17.1513 108.579 17.1513C106.837 17.1513 105.464 18.4557 105.464 20.7826C105.464 23.1096 106.837 24.4707 108.579 24.4707C109.74 24.4707 110.742 23.847 110.911 22.1171L114.791 24.2446C114.332 27.1942 111.85 28.7548 108.605 28.7548C103.803 28.7548 100.399 25.4643 100.399 20.7838V20.7814Z" fill="black"/>
<path d="M130.613 19.9594V28.4974H125.942V26.5113C125.23 27.9861 123.805 28.7525 121.721 28.7525C118.29 28.7525 116.391 26.6817 116.391 24.0151C116.391 21.178 118.317 19.4203 122.75 19.4203H125.6C125.521 17.8597 124.545 16.9809 122.566 16.9809C121.194 16.9809 119.663 17.491 118.707 18.3583L117.018 14.6991C118.634 13.4922 121.061 12.8684 123.304 12.8684C127.949 12.8684 130.613 15.0806 130.613 19.9594ZM125.6 23.5617V22.2284H123.437C121.827 22.2284 121.246 22.8522 121.246 23.789C121.246 24.7258 121.933 25.3496 123.12 25.3496C124.228 25.3496 125.205 24.7826 125.6 23.5629V23.5617Z" fill="black"/>
<path d="M143.358 12.9322V17.7832C142.909 17.6614 142.592 17.6325 142.223 17.6325C140.191 17.6325 138.792 18.7385 138.792 21.433V28.4962H133.779V13.1223H138.554V14.9658C139.584 13.5757 141.245 12.8672 143.357 12.9322H143.358Z" fill="black"/>
<path d="M159.823 22.1716H149.426C149.848 23.7322 151.089 24.6388 152.936 24.6388C154.334 24.6388 155.258 24.2133 156.097 23.1525L158.736 26.102C157.501 27.9003 155.496 28.7513 152.778 28.7513C147.685 28.7513 144.386 25.3762 144.386 20.7803C144.386 16.1843 147.737 12.8661 152.249 12.8661C156.471 12.8661 159.901 15.7588 159.901 20.8371C159.901 21.2348 159.849 21.7449 159.823 22.1704V22.1716ZM149.347 19.3345H155.205C154.941 17.7183 153.833 16.6968 152.276 16.6968C150.719 16.6968 149.637 17.7183 149.347 19.3345Z" fill="black"/>
<path d="M95.5444 3.85159C93.178 3.85159 91.6232 5.45044 91.6232 7.52232C91.6232 9.5942 93.178 11.193 95.5444 11.193C97.9107 11.193 99.4655 9.5942 99.4655 7.41333C99.4655 5.23246 97.9107 3.85159 95.5444 3.85159Z" fill="black"/>
<defs>
<linearGradient id="paint0_linear_118_1660" x1="0.0973816" y1="16" x2="25.5803" y2="16" gradientUnits="userSpaceOnUse">
<stop stop-color="#683C90"/>
<stop offset="0.55" stop-color="#683C90"/>
</linearGradient>
<radialGradient id="paint1_radial_118_1660" cx="0" cy="0" r="1" gradientUnits="userSpaceOnUse" gradientTransform="translate(12.8394 16) scale(26.3316 26.3316)">
<stop offset="0.23" stop-color="#4239A2"/>
<stop offset="0.41" stop-color="#4239A2" stop-opacity="0.79"/>
<stop offset="0.81" stop-color="#4239A2" stop-opacity="0.26"/>
<stop offset="1" stop-color="#4239A2" stop-opacity="0"/>
</radialGradient>
</defs>
</svg>
